<?xml version="1.0" encoding="UTF-8" standalone="no"?>
<!-- Created with Inkscape (http://www.inkscape.org/) -->

<svg
   xmlns:dc="http://purl.org/dc/elements/1.1/"
   xmlns:cc="http://creativecommons.org/ns#"
   xmlns:rdf="http://www.w3.org/1999/02/22-rdf-syntax-ns#"
   xmlns:svg="http://www.w3.org/2000/svg"
   xmlns="http://www.w3.org/2000/svg"
   xmlns:sodipodi="http://sodipodi.sourceforge.net/DTD/sodipodi-0.dtd"
   xmlns:inkscape="http://www.inkscape.org/namespaces/inkscape"
   width="2.25in"
   height="2in"
   viewBox="0 0 202.5 180"
   id="svg2"
   version="1.1"
   inkscape:version="0.91 r13725"
   sodipodi:docname="lpf_label.svg">
  <defs
     id="defs4" />
  <sodipodi:namedview
     id="base"
     pagecolor="#ffffff"
     bordercolor="#666666"
     borderopacity="1.0"
     inkscape:pageopacity="0.0"
     inkscape:pageshadow="2"
     inkscape:zoom="3.959798"
     inkscape:cx="28.5366"
     inkscape:cy="224.31671"
     inkscape:document-units="px"
     inkscape:current-layer="text4140"
     showgrid="false"
     showguides="true"
     inkscape:guide-bbox="true"
     units="in"
     inkscape:window-width="3838"
     inkscape:window-height="2139"
     inkscape:window-x="1620"
     inkscape:window-y="379"
     inkscape:window-maximized="1"
     inkscape:snap-smooth-nodes="true"
     inkscape:object-nodes="true">
    <sodipodi:guide
       position="45,330"
       orientation="0,1"
       id="guide4177" />
    <sodipodi:guide
       position="88,290"
       orientation="0,1"
       id="guide4179" />
    <inkscape:grid
       type="xygrid"
       id="grid4181" />
  </sodipodi:namedview>
  <metadata
     id="metadata7">
    <rdf:RDF>
      <cc:Work
         rdf:about="">
        <dc:format>image/svg+xml</dc:format>
        <dc:type
           rdf:resource="http://purl.org/dc/dcmitype/StillImage" />
        <dc:title />
      </cc:Work>
    </rdf:RDF>
  </metadata>
  <g
     inkscape:label="Layer 1"
     inkscape:groupmode="layer"
     id="layer1"
     transform="translate(0,-872.36215)">
    <g
       transform="scale(1.0006132,0.99938717)"
       style="font-style:normal;font-weight:normal;font-size:33.00637054px;line-height:120.00000477%;font-family:Sans;-inkscape-font-specification:Sans;text-align:start;letter-spacing:0px;word-spacing:0px;text-anchor:start;fill:#000000;fill-opacity:1;stroke:none;stroke-width:1px;stroke-linecap:butt;stroke-linejoin:miter;stroke-opacity:1"
       id="text4140">
      <path
         d="m 41.573421,995.89505 10.58847,0 0,4.56095 -17.486286,0 0,-4.56095 8.783434,-7.75198 q 1.176497,-1.06368 1.74057,-2.07901 0.564074,-1.01534 0.564074,-2.11125 0,-1.69222 -1.144264,-2.72367 -1.128147,-1.03145 -3.013765,-1.03145 -1.450475,0 -3.174929,0.62854 -1.724454,0.61242 -3.690654,1.83727 l 0,-5.28618 q 2.095131,-0.693 4.141913,-1.04756 2.046781,-0.37068 4.012981,-0.37068 4.319193,0 6.704419,1.90173 2.401343,1.90174 2.401343,5.3023 0,1.96619 -1.015333,3.67453 -1.015333,1.69222 -4.270844,4.54483 l -5.141129,4.51258 z"
         style="font-weight:bold;text-align:center;text-anchor:middle"
         id="path4793" />
      <path
         d="m 70.196132,988.40093 q 0,-4.51259 -0.854168,-6.34986 -0.838053,-1.85338 -2.836485,-1.85338 -1.998433,0 -2.852602,1.85338 -0.854168,1.83727 -0.854168,6.34986 0,4.56094 0.854168,6.43044 0.854169,1.8695 2.852602,1.8695 1.982316,0 2.836485,-1.8695 0.854168,-1.8695 0.854168,-6.43044 z m 6.204811,0.0484 q 0,5.97918 -2.578622,9.23469 -2.578623,3.23943 -7.316842,3.23943 -4.754336,0 -7.332959,-3.23943 -2.578622,-3.25551 -2.578622,-9.23469 0,-5.9953 2.578622,-9.23469 2.578623,-3.25551 7.332959,-3.25551 4.738219,0 7.316842,3.25551 2.578622,3.23939 2.578622,9.23469 z"
         style="font-weight:bold;text-align:center;text-anchor:middle"
         id="path4795" />
      <path
         d="m 86.441455,976.39422 3.577839,0 -8.493339,27.12388 -3.561722,0 8.477222,-27.12388 z"
         style="font-weight:bold;text-align:center;text-anchor:middle"
         id="path4797" />
      <path
         d="m 105.39433,987.4823 q 2.43358,0.62854 3.69066,2.19183 1.27319,1.54717 1.27319,3.94851 0,3.57784 -2.73979,5.44734 -2.73978,1.85342 -7.993726,1.85342 -1.853386,0 -3.722887,-0.3062 -1.853385,-0.2901 -3.674537,-0.88644 l 0,-4.78657 q 1.74057,0.87028 3.448908,1.32154 1.724453,0.43514 3.384442,0.43514 2.46581,0 3.77124,-0.85416 1.32154,-0.85417 1.32154,-2.4497 0,-1.64387 -1.35378,-2.48192 -1.33766,-0.85417 -3.96463,-0.85417 l -2.481924,0 0,-3.99686 2.610855,0 q 2.336879,0 3.481139,-0.72524 1.14427,-0.74136 1.14427,-2.24018 0,-1.38601 -1.11204,-2.14348 -1.11203,-0.75747 -3.142691,-0.75747 -1.498825,0 -3.029882,0.33844 -1.531057,0.33845 -3.045998,0.99922 l 0,-4.54482 q 1.837268,-0.51573 3.642304,-0.77359 1.805036,-0.25786 3.545607,-0.25786 4.68987,0 7.01063,1.54717 2.33688,1.53106 2.33688,4.62541 0,2.11124 -1.11203,3.46502 -1.11204,1.33766 -3.28775,1.88562 z"
         style="font-weight:bold;text-align:center;text-anchor:middle"
         id="path4799" />
      <path
         d="m 128.15067,988.40093 q 0,-4.51259 -0.85417,-6.34986 -0.83805,-1.85338 -2.83648,-1.85338 -1.99843,0 -2.8526,1.85338 -0.85417,1.83727 -0.85417,6.34986 0,4.56094 0.85417,6.43044 0.85417,1.8695 2.8526,1.8695 1.98232,0 2.83648,-1.8695 0.85417,-1.8695 0.85417,-6.43044 z m 6.20481,0.0484 q 0,5.97918 -2.57862,9.23469 -2.57862,3.23943 -7.31684,3.23943 -4.75434,0 -7.33296,-3.23943 -2.57862,-3.25551 -2.57862,-9.23469 0,-5.9953 2.57862,-9.23469 2.57862,-3.25551 7.33296,-3.25551 4.73822,0 7.31684,3.25551 2.57862,3.23939 2.57862,9.23469 z"
         style="font-weight:bold;text-align:center;text-anchor:middle"
         id="path4801" />
      <path
         d="m 155.41961,985.40328 q 1.09592,-1.6761 2.59474,-2.54639 1.51494,-0.8864 3.31998,-0.8864 3.11046,0 4.73822,1.91785 1.62775,1.91785 1.62775,5.57627 l 0,10.99139 -5.8019,0 0,-9.41198 q 0.0161,-0.20951 0.0161,-0.43514 0.0161,-0.22563 0.0161,-0.64466 0,-1.91785 -0.56407,-2.77202 -0.56407,-0.87028 -1.82115,-0.87028 -1.64387,0 -2.54639,1.35377 -0.8864,1.35378 -0.91864,3.91629 l 0,8.86402 -5.8019,0 0,-9.41198 q 0,-2.99765 -0.51572,-3.85182 -0.51573,-0.87028 -1.83727,-0.87028 -1.65999,0 -2.56251,1.36989 -0.90252,1.35378 -0.90252,3.88405 l 0,8.88014 -5.8019,0 0,-18.05037 5.8019,0 0,2.64309 q 1.06369,-1.53105 2.43358,-2.30464 1.38601,-0.77359 3.046,-0.77359 1.8695,0 3.30386,0.90252 1.43436,0.90252 2.17571,2.53027 z"
         style="font-weight:bold;text-align:center;text-anchor:middle"
         id="path4803" />
      <path
         d="m 70.357297,1016.0019 6.204811,0 0,19.3719 10.894681,0 0,4.6898 -17.099492,0 0,-24.0617 z"
         style="font-weight:bold;text-align:center;text-anchor:middle"
         id="path4805" />
      <path
         d="m 91.373073,1016.0019 10.298377,0 q 4.59317,0 7.04286,2.0467 2.46581,2.0307 2.46581,5.8019 0,3.7874 -2.46581,5.8342 -2.44969,2.0306 -7.04286,2.0306 l -4.093566,0 0,8.3483 -6.204811,0 0,-24.0617 z m 6.204811,4.4964 0,6.7206 3.432796,0 q 1.80503,0 2.78813,-0.8703 0.9831,-0.8864 0.9831,-2.4981 0,-1.6116 -0.9831,-2.4819 -0.9831,-0.8703 -2.78813,-0.8703 l -3.432796,0 z"
         style="font-weight:bold;text-align:center;text-anchor:middle"
         id="path4807" />
      <path
         d="m 115.54766,1016.0019 16.74493,0 0,4.6898 -10.54012,0 0,4.4804 9.91158,0 0,4.6899 -9.91158,0 0,10.2016 -6.20481,0 0,-24.0617 z"
         style="font-weight:bold;text-align:center;text-anchor:middle"
         id="path4809" />
    </g>
    <text
       xml:space="preserve"
       style="font-style:normal;font-weight:normal;font-size:33.69741821px;line-height:120.00000477%;font-family:Sans;-inkscape-font-specification:Sans;text-align:start;letter-spacing:0px;word-spacing:0px;text-anchor:start;fill:#000000;fill-opacity:1;stroke:none;stroke-width:1px;stroke-linecap:butt;stroke-linejoin:miter;stroke-opacity:1"
       x="-115.63022"
       y="861.75372"
       id="text4136"
       sodipodi:linespacing="120%"><tspan
         sodipodi:role="line"
         id="tspan4138"
         x="-115.63022"
         y="861.75372"
         style="font-weight:bold">LPSDR</tspan></text>
    <path
       style="color:#000000;clip-rule:nonzero;display:inline;overflow:visible;visibility:visible;opacity:1;isolation:auto;mix-blend-mode:normal;color-interpolation:sRGB;color-interpolation-filters:linearRGB;solid-color:#000000;solid-opacity:1;fill:#000000;fill-opacity:1;fill-rule:nonzero;stroke:none;stroke-width:6.5999999;stroke-linecap:round;stroke-linejoin:round;stroke-miterlimit:4;stroke-dasharray:none;stroke-dashoffset:0;stroke-opacity:1;marker:none;color-rendering:auto;image-rendering:auto;shape-rendering:auto;text-rendering:auto;enable-background:accumulate"
       d="m 256.10814,803.45002 c -7.25032,0 -10.87697,13.29946 -14.50213,26.59893 l 29.00166,0 c -3.62516,-13.29947 -7.24921,-26.59893 -14.49953,-26.59893 z m 14.49953,26.59893 c 3.62517,13.29946 7.25181,26.59892 14.50213,26.59892 7.25032,0 10.87436,-13.29946 14.49952,-26.59892 l -29.00165,0 z m 29.00165,0 29.00166,0 c -3.62517,-13.29947 -7.2492,-26.59893 -14.49952,-26.59893 -7.25033,0 -10.87697,13.29946 -14.50214,26.59893 z m 29.00166,0 c 3.62516,13.29946 7.24921,26.59892 14.49954,26.59892 7.25032,0 10.87639,-13.29946 14.3203,-26.59892 l -28.81984,0 z m -87.00497,0 -29.00166,0 c 3.62516,13.29946 7.25181,26.59892 14.50213,26.59892 7.25032,0 10.87437,-13.29946 14.49953,-26.59892 z m 130.50617,-26.59893 c -7.25034,0 -10.87439,13.29946 -14.49954,26.59893 l 28.81984,0 c -3.44391,-13.29947 -7.06998,-26.59893 -14.3203,-26.59893 z"
       id="path4185"
       inkscape:connector-curvature="0" />
    <path
       style="font-style:normal;font-weight:normal;font-size:51.01494598px;line-height:120.00000477%;font-family:Sans;-inkscape-font-specification:Sans;text-align:start;letter-spacing:0px;word-spacing:0px;text-anchor:start;fill:#000000;fill-opacity:1;stroke:none;stroke-width:1px;stroke-linecap:butt;stroke-linejoin:miter;stroke-opacity:1"
       d="m 147.98008,882.81001 c -22.71891,0 -34.39117,20.24161 -45.75949,41.03247 1.06299,0.49006 1.93243,1.05054 2.58826,1.68764 0.0232,0.0225 0.0421,0.0485 0.0649,0.0714 l 9.12464,0 0,-15.46953 8.40252,0 c 4.69107,0 8.18278,0.33814 10.47313,1.01421 2.30414,0.66227 4.27623,1.79427 5.91811,3.39476 1.44872,1.39353 2.52558,2.9999 3.22924,4.82114 0.70366,1.82124 1.05478,3.88497 1.05478,6.18911 0,0.0172 -0.002,0.0331 -0.002,0.0503 l 6.10636,0 0,-15.46953 12.17051,0 c 4.07019,0 7.04941,0.68358 8.93964,2.04951 1.90403,1.36593 2.85601,3.52534 2.85601,6.47796 0,2.042 -0.49626,3.71811 -1.48967,5.02885 -0.56269,0.75291 -1.29728,1.38792 -2.19231,1.91321 l 25.23677,0 c 0,0 -23.35918,-42.79152 -46.72178,-42.79152 z m 21.48501,42.79151 -20.28419,0 0,15.42896 7.96926,0 0,-11.6918 2.25559,0 c 1.29695,0 2.33165,0.28138 3.1043,0.84706 0.78645,0.5657 1.55841,1.62229 2.31726,3.16758 l 3.76637,7.67716 8.4869,0 -4.32621,-8.77413 c -0.88302,-1.77985 -1.7596,-3.10485 -2.62883,-3.97407 -0.85543,-0.88303 -1.82769,-1.44903 -2.91767,-1.69738 0.84555,-0.26424 1.59409,-0.59419 2.25722,-0.98338 z m -26.39054,0 -8.2159,0 c -0.01,3.05131 -0.87006,5.38067 -2.58502,6.98587 -1.71087,1.61428 -4.19543,2.42112 -7.4516,2.42112 l -2.85601,0 0,-9.40699 -7.96762,0 0,15.42896 8.40251,0 c 4.63589,0 8.113,-0.33084 10.43095,-0.99311 2.31794,-0.67607 4.30462,-1.81375 5.96029,-3.41424 1.44872,-1.39352 2.52558,-3.00152 3.22925,-4.82277 0.69846,-1.82148 1.04799,-3.88796 1.05315,-6.19884 z m -21.10853,0 12.89263,0 c 5e-5,-0.0173 0.002,-0.033 0.002,-0.0503 0,-3.063 -0.8563,-5.39513 -2.56716,-6.99561 -1.71087,-1.60049 -4.20112,-2.40165 -7.47108,-2.40165 l -2.85601,0 0,9.44756 z m -17.09227,0 -3.62356,0 c -0.89294,1.63557 -1.795621,3.25518 -2.69374,4.88119 0.488299,0.50746 0.748079,1.17477 0.748079,2.02192 0,1.07619 -0.46302,1.9033 -1.387435,2.48279 -0.593627,0.37212 -1.373346,0.61168 -2.302665,0.74484 -1.128207,1.96433 -2.269233,3.90395 -3.440194,5.78991 0.839714,0.0681 1.678048,0.10873 2.515236,0.10873 4.152988,0 7.236809,-0.82711 9.251219,-2.48279 2.02819,-1.66947 3.04262,-4.20919 3.04262,-7.61711 0,-2.55237 -0.70685,-4.526 -2.10956,-5.92948 z m -12.699515,15.92065 c -1.125398,-0.0912 -2.253479,-0.23615 -3.383405,-0.4495 -1.973013,-0.37252 -3.945095,-0.92393 -5.918108,-1.65519 l 0,-6.72623 c 1.973013,1.04859 3.876983,1.84083 5.712026,2.37893 1.848835,0.5243 3.62793,0.78703 5.338796,0.78703 0.622083,0 1.173038,-0.0508 1.690885,-0.12495 0.992571,-1.72819 1.968326,-3.48672 2.942021,-5.24955 -0.06838,-0.0711 -0.126487,-0.14978 -0.204461,-0.21421 -0.620879,-0.52429 -1.868842,-0.99299 -3.745278,-1.4069 l -3.08319,-0.68318 c -2.652656,-0.56842 -4.691247,-1.42912 -6.124206,-2.5769 l -8.913677,0 c -0.478506,0.78821 -1.07627,1.49293 -1.809354,2.10144 -2.09719,1.73846 -5.111272,2.60774 -9.043499,2.60774 l -5.25766,0 0,10.71978 -7.967627,0 0,-15.42896 -19.020074,0 0,9.40699 13.991219,0 0,6.02197 -21.958845,0 0,-15.42896 -17.6212766,0 c 11.6812946,21.39615 23.3673026,42.79314 46.7298906,42.79314 17.439799,0 28.366493,-11.92713 37.645823,-26.87249 z m -66.754437,-15.92065 7.967626,0 0,-15.46953 -7.967626,0 0,15.46953 z m 26.9877,0 24.07814,0 c 0.899393,-1.48152 1.356604,-3.27435 1.356604,-5.39072 0,-3.22857 -1.054967,-5.71152 -3.165958,-7.44998 -2.09719,-1.75226 -5.111272,-2.62883 -9.043499,-2.62883 l -13.225287,0 0,15.46953 z m 32.991817,0 15.850875,0 c 0.32185,-0.5895 0.6483,-1.16999 0.9704,-1.75904 -1.28514,-0.59248 -2.856501,-1.08128 -4.736771,-1.45884 l -3.394755,-0.68318 c -1.614289,-0.33113 -2.731694,-0.72442 -3.352573,-1.17972 -0.607078,-0.46911 -0.910351,-1.1162 -0.910351,-1.94404 0,-1.10378 0.455715,-1.91792 1.366341,-2.44221 0.910618,-0.5243 2.316707,-0.78703 4.220735,-0.78703 1.43491,0 2.9602,0.193 4.574493,0.57932 1.614281,0.38632 3.270121,0.95962 4.967181,1.71848 l 0,-6.54125 c -1.91782,-0.5105 -3.77396,-0.88919 -5.567601,-1.13754 -1.79365,-0.26214 -3.539494,-0.3927 -5.23656,-0.3927 -3.725271,0 -6.581234,0.82711 -8.568039,2.48278 -1.986813,1.65568 -2.979343,4.02267 -2.979343,7.09946 0,2.45593 0.709529,4.40774 2.130648,5.85646 0.203332,0.20528 0.428747,0.39956 0.66532,0.58905 z m -25.02419,-9.69584 4.40897,0 c 1.545297,0 2.738119,0.37301 3.579753,1.11807 0.841635,0.74505 1.262488,1.80731 1.262488,3.18705 0,1.37973 -0.420853,2.44929 -1.262488,3.20814 -0.841634,0.74506 -2.034456,1.11807 -3.579753,1.11807 l -4.40897,0 0,-8.63133 z m 96.775035,0 0,7.92706 3.35256,0 c 1.66947,0 2.8623,-0.31057 3.57976,-0.93145 0.73125,-0.62088 1.09697,-1.64098 1.09697,-3.0621 0,-1.40733 -0.36572,-2.41446 -1.09697,-3.02153 -0.71746,-0.60708 -1.91029,-0.91198 -3.57976,-0.91198 l -3.35256,0 z"
       id="text4136-3"
       inkscape:connector-curvature="0" />
    <path
       style="color:#000000;clip-rule:nonzero;display:inline;overflow:visible;visibility:visible;opacity:1;isolation:auto;mix-blend-mode:normal;color-interpolation:sRGB;color-interpolation-filters:linearRGB;solid-color:#000000;solid-opacity:1;fill:#000000;fill-opacity:1;fill-rule:nonzero;stroke:none;stroke-width:6.5999999;stroke-linecap:round;stroke-linejoin:round;stroke-miterlimit:4;stroke-dasharray:none;stroke-dashoffset:0;stroke-opacity:1;marker:none;color-rendering:auto;image-rendering:auto;shape-rendering:auto;text-rendering:auto;enable-background:accumulate"
       d="m -95.41911,737.36215 c 10.90319,0 10.90319,-40 21.80637,-40 10.90318,0 10.90318,40 21.80637,40 10.90318,0 10.90318,-40 21.80637,-40 10.90318,0 10.90318,40 21.80637,40 10.90318,0 10.90318,-40 21.80637,-40 10.90318,0 10.90318,40 20.71605,40 -9.81287,0 -129.7479,0 -129.7479,0 z"
       id="path4185-7"
       inkscape:connector-curvature="0"
       sodipodi:nodetypes="czzzzzcc" />
  </g>
</svg>
